<?xml version="1.0" encoding="utf-8"?>
<svg viewBox="171.62 113.125 24.897 27.664" xmlns="http://www.w3.org/2000/svg">
  <path d="M 182.178 115.16 Q 181.779 115.234 181.48 115.583 Q 181.331 115.682 181.07 115.745 Q 180.808 115.807 181.107 115.956 Q 181.779 116.081 181.48 116.479 L 179.812 118.67 Q 179.339 119.368 178.816 119.965 Q 178.716 120.164 178.492 120.389 Q 178.467 121.235 178.492 122.132 L 178.99 122.779 Q 179.115 122.181 179.563 121.957 Q 180.36 121.783 181.032 121.559 Q 182.327 120.911 183.647 120.538 Q 184.219 120.314 184.817 120.214 Q 184.917 120.687 184.468 121.111 Q 183.373 122.455 182.028 123.601 Q 178.916 124.124 176.376 125.941 Q 175.255 126.464 175.38 127.709 Q 174.957 128.929 175.728 129.975 Q 176.7 129.726 177.596 129.402 L 178.517 128.73 Q 179.015 128.63 179.463 128.182 Q 181.182 126.663 182.875 125.045 Q 184.194 124.97 185.489 124.821 Q 186.112 124.721 186.56 124.746 Q 184.717 125.916 182.75 126.912 Q 182.028 126.738 181.953 127.336 Q 181.929 127.834 181.879 128.307 Q 181.953 128.855 182.526 129.303 Q 183.323 129.577 184.095 129.975 Q 183.945 130.548 183.348 130.971 Q 183.049 131.419 182.999 132.017 Q 183.074 132.515 182.999 133.237 Q 183.174 133.785 183.746 134.158 Q 184.443 134.706 185.141 135.453 Q 185.838 136.2 186.759 136.399 Q 187.008 136.175 187.083 135.851 Q 187.68 135.005 187.008 134.208 Q 185.664 133.038 184.294 132.017 Q 184.842 131.32 185.688 130.797 Q 186.286 130.847 186.286 130.373 Q 186.535 129.851 186.46 129.303 Q 186.211 128.78 185.688 128.506 Q 185.166 128.232 184.817 127.759 Q 184.045 127.709 183.174 127.56 Q 184.045 127.037 185.041 126.713 Q 186.062 126.066 187.257 125.767 Q 188.054 125.244 188.901 124.821 Q 189.423 124.323 190.245 124.348 Q 190.868 124.348 191.465 124.547 Q 191.689 124.273 191.938 124.173 Q 192.262 124.173 192.113 123.551 Q 192.138 123.277 192.113 122.879 Q 191.465 122.132 190.444 121.957 Q 189.897 121.883 189.548 121.484 Q 189.075 121.932 188.328 121.957 Q 187.108 122.156 185.863 122.405 Q 185.614 122.057 186.162 121.609 Q 186.759 120.986 187.083 120.289 Q 187.182 119.816 187.257 119.343 Q 187.207 118.895 186.784 118.832 Q 186.361 118.77 186.087 118.421 Q 185.439 118.372 184.966 118.67 Q 182.925 119.193 181.107 120.09 Q 181.032 119.816 181.48 119.467 Q 182.352 118.397 183.348 117.45 Q 184.07 116.927 183.423 116.18 Q 182.949 115.732 182.352 115.234 Z M 179.912 125.443 Q 180.385 125.369 179.912 125.692 Q 178.841 126.688 177.77 127.435 Q 177.222 127.883 176.6 128.232 Q 175.853 127.908 175.903 127.186 Q 176.849 125.941 178.492 125.618 Z" style="fill: rgb(51, 51, 51); white-space: pre;"/>
</svg>