<?xml version="1.0" encoding="utf-8"?>
<svg viewBox="171.62 113.052 24.898 27.79" xmlns="http://www.w3.org/2000/svg">
  <path d="M 182.626 114.562 Q 182.327 115.01 181.779 115.085 Q 181.929 115.234 182.339 115.097 Q 182.75 114.96 182.7 115.334 Q 182.352 116.131 182.028 116.927 Q 181.929 117.475 181.48 117.55 L 180.285 117.774 Q 180.21 117.674 180.26 117.475 Q 180.31 117.276 180.136 117.45 Q 179.986 117.774 179.638 117.936 Q 179.289 118.098 179.19 117.674 Q 178.916 117.052 178.916 116.454 Q 178.941 116.28 178.853 115.832 Q 178.766 115.384 178.343 115.508 Q 177.795 116.131 177.671 117.027 Q 177.048 117.55 176.401 117.874 Q 176.401 118.471 176.202 118.994 Q 176.451 119.716 177.123 119.592 Q 177.347 119.691 176.998 119.741 Q 176.65 119.791 177.023 119.791 Q 177.72 119.617 178.318 119.417 Q 178.766 120.015 179.264 119.99 Q 179.737 119.567 179.937 118.944 Q 180.559 118.596 181.231 118.67 Q 181.057 119.119 180.659 119.417 Q 179.314 120.04 178.243 121.111 Q 177.87 121.409 177.397 121.683 Q 177.098 121.883 176.849 122.206 Q 176.6 123.675 177.272 124.895 Q 177.571 125.667 178.243 126.041 Q 178.617 126.34 178.293 126.427 Q 177.969 126.514 177.77 126.638 Q 177.447 126.788 177.596 126.838 Q 177.123 127.709 176.202 128.108 Q 175.629 128.132 175.38 128.581 Q 175.031 128.531 174.969 128.892 Q 174.907 129.253 174.757 129.303 Q 175.23 129.577 175.803 129.477 Q 176.475 129.128 176.202 129.577 L 174.234 132.266 Q 173.761 132.888 173.189 133.536 Q 173.139 133.785 172.902 133.772 Q 172.666 133.76 172.716 133.959 Q 172.392 134.382 172.566 134.88 Q 172.691 135.129 172.94 135.005 Q 174.608 133.561 175.803 131.594 Q 176.575 130.199 177.596 128.904 Q 180.26 127.958 183.099 127.435 Q 184.941 128.556 186.697 129.938 Q 188.452 131.32 190.544 131.917 Q 190.917 131.992 191.266 132.116 Q 192.461 132.39 193.632 132.266 Q 194.179 132.316 194.652 132.191 Q 194.603 131.867 194.08 131.668 Q 193.208 131.096 192.237 130.548 Q 189.822 129.477 187.257 128.73 Q 185.913 127.859 184.394 127.161 Q 184.892 126.887 185.365 126.539 Q 184.568 126.389 184.02 125.966 Q 183.522 125.817 183.174 126.165 Q 182.302 126.464 181.605 125.941 Q 181.406 125.767 181.779 125.767 Q 182.825 125.294 183.572 124.646 Q 184.344 123.825 185.141 122.829 Q 185.29 122.48 185.651 122.219 Q 186.012 121.957 185.863 121.559 Q 185.688 120.538 184.817 120.09 Q 184.468 119.99 184.319 119.716 Q 183.572 119.741 182.626 119.965 Q 182.451 120.015 182.14 120.09 Q 181.829 120.164 182.028 119.891 Q 182.427 119.741 182.7 119.343 Q 183.323 118.87 183.746 118.197 Q 184.294 118.247 185.041 118.197 Q 185.614 118.172 186.037 117.948 Q 185.788 117.874 185.962 117.749 Q 186.137 117.625 185.863 117.6 Q 185.464 117.251 185.041 117.102 Q 184.319 117.077 184.394 116.554 Q 185.041 115.583 184.095 115.06 Q 183.696 114.761 183.099 114.587 Q 182.9 114.637 182.626 114.562 Z M 177.521 117.176 Q 177.795 117.251 177.696 117.849 Q 177.994 118.322 177.521 118.421 Q 177.247 118.571 176.886 118.521 Q 176.525 118.471 176.849 118.123 Z M 176.301 118.87 Q 176.451 118.77 176.463 118.982 Q 176.475 119.193 176.301 118.994 Z M 179.264 121.285 Q 179.787 121.235 179.264 121.559 Q 179.09 121.683 178.804 121.721 Q 178.517 121.758 178.816 121.484 Q 178.99 121.285 179.264 121.285 Z M 182.526 121.484 Q 182.8 121.36 182.663 121.621 Q 182.526 121.883 182.352 122.032 Q 181.879 122.854 181.53 123.725 Q 180.733 122.804 179.538 122.779 Q 178.916 122.854 178.318 122.779 Q 177.845 122.754 178.243 122.829 Q 178.194 123.078 178.343 123.152 Q 178.99 123.476 179.563 123.999 Q 180.285 124.273 180.957 124.223 Q 181.505 124.248 181.107 124.547 Q 180.111 124.572 179.065 124.895 Q 178.642 125.095 178.555 124.684 Q 178.467 124.273 178.318 123.999 Q 177.994 123.426 177.696 122.779 L 178.243 122.032 Q 178.542 121.683 179.065 121.932 Q 179.588 121.932 180.011 122.206 Q 180.833 122.132 181.605 121.858 Z M 178.617 125.941 Q 179.14 125.767 178.816 126.215 Q 178.542 126.215 178.617 125.941 Z M 180.285 126.165 Q 180.957 126.091 181.68 126.514 Q 182.078 126.788 181.406 126.838 Q 179.862 127.311 178.318 127.834 Q 178.443 127.435 178.741 127.012 Q 179.09 126.489 179.563 126.614 Q 179.912 126.389 180.285 126.165 Z M 178.243 126.614 Q 178.542 126.614 178.069 126.838 Q 177.596 127.236 177.77 126.838 Q 177.969 126.663 178.243 126.614 Z M 177.521 127.634 Q 177.795 127.56 177.621 127.809 Q 177.447 128.058 177.272 128.182 Q 177.098 128.307 176.849 128.344 Q 176.6 128.381 176.849 128.108 Q 177.173 127.809 177.521 127.634 Z M 182.078 128.979 Q 181.68 129.228 181.356 129.577 Q 180.21 130.622 179.264 131.768 Q 179.065 131.245 178.692 130.797 Q 178.393 130.697 178.281 131.046 Q 178.169 131.394 177.945 131.668 Q 177.77 132.116 177.584 132.627 Q 177.397 133.137 177.77 133.586 Q 177.895 134.208 178.069 134.731 Q 178.418 134.706 178.741 135.005 Q 178.916 135.129 179.028 134.905 Q 179.14 134.681 179.339 134.806 Q 179.538 134.656 179.463 134.27 Q 179.389 133.884 179.563 133.586 Q 179.538 133.262 179.912 132.988 Q 180.011 133.436 180.31 133.859 Q 180.36 134.382 180.459 135.005 Q 180.335 135.154 180.198 135.055 Q 180.061 134.955 180.21 135.179 Q 180.435 135.677 180.086 135.926 Q 180.011 136.349 180.385 136.1 Q 180.708 136.225 180.858 136.499 Q 181.381 136.723 182.028 136.847 Q 182.7 137.096 183.348 136.872 Q 183.472 136.748 183.647 136.773 Q 183.746 136.698 183.833 136.847 Q 183.921 136.997 183.97 136.773 Q 184.369 135.453 184.394 133.959 Q 184.468 132.639 184.468 131.195 Q 184.668 130.324 184.468 129.402 Q 183.696 128.904 182.825 129.128 Q 182.427 128.879 182.078 128.979 Z M 182.526 130.324 Q 182.825 130.423 182.7 131.021 Q 182.75 131.718 182.626 132.316 Q 182.526 131.892 182.103 131.805 Q 181.68 131.718 181.356 131.544 Z M 181.406 133.71 Q 181.978 133.635 182.526 134.084 Q 181.754 134.756 181.406 133.71 Z" style="fill: rgb(51, 51, 51); white-space: pre;"/>
</svg>